<svg width="24" height="27" viewBox="0 0 24 27" fill="none" xmlns="http://www.w3.org/2000/svg">
<g filter="url(#filter0_d_42_32)">
<path d="M12 10.8335C13.3807 10.8335 14.5 9.71421 14.5 8.3335C14.5 6.95278 13.3807 5.8335 12 5.8335C10.6193 5.8335 9.5 6.95278 9.5 8.3335C9.5 9.71421 10.6193 10.8335 12 10.8335Z" stroke="#3F4E65" stroke-width="1.3" stroke-linecap="round" stroke-linejoin="round"/>
<path d="M11.9999 1.66675C10.2318 1.66675 8.53612 2.36913 7.28587 3.61937C6.03563 4.86961 5.33325 6.5653 5.33325 8.33342C5.33325 9.91008 5.66825 10.9417 6.58325 12.0834L11.9999 18.3334L17.4166 12.0834C18.3316 10.9417 18.6666 9.91008 18.6666 8.33342C18.6666 6.5653 17.9642 4.86961 16.714 3.61937C15.4637 2.36913 13.768 1.66675 11.9999 1.66675V1.66675Z" stroke="#3F4E65" stroke-width="1.3" stroke-linecap="round" stroke-linejoin="round"/>
</g>
<defs>
<filter id="filter0_d_42_32" x="-2" y="0" width="28" height="28" filterUnits="userSpaceOnUse" color-interpolation-filters="sRGB">
<feFlood flood-opacity="0" result="BackgroundImageFix"/>
<feColorMatrix in="SourceAlpha" type="matrix" values="0 0 0 0 0 0 0 0 0 0 0 0 0 0 0 0 0 0 127 0" result="hardAlpha"/>
<feOffset dy="4"/>
<feGaussianBlur stdDeviation="2"/>
<feComposite in2="hardAlpha" operator="out"/>
<feColorMatrix type="matrix" values="0 0 0 0 0 0 0 0 0 0 0 0 0 0 0 0 0 0 0.25 0"/>
<feBlend mode="normal" in2="BackgroundImageFix" result="effect1_dropShadow_42_32"/>
<feBlend mode="normal" in="SourceGraphic" in2="effect1_dropShadow_42_32" result="shape"/>
</filter>
</defs>
</svg>
