<svg width="23" height="20" viewBox="0 0 23 20" fill="none" xmlns="http://www.w3.org/2000/svg">
<rect width="23" height="20" fill="#E5E5E5"/>
<g clip-path="url(#clip0_0_1)">
<rect width="1920" height="4954" transform="translate(-1204 -4705)" fill="white"/>
<g filter="url(#filter0_d_0_1)">
<rect x="-1204" y="-251" width="1920" height="500" fill="#3F4E65"/>
</g>
<g clip-path="url(#clip1_0_1)">
<path d="M13.5 -10C2.73036 -10 -6 -1.26964 -6 9.5C-6 20.2696 2.73036 29 13.5 29C24.2696 29 33 20.2696 33 9.5C33 -1.26964 24.2696 -10 13.5 -10Z" fill="#40B3E0"/>
<path d="M22.9884 1.21692L19.5054 18.7774C19.5054 18.7774 19.0183 19.9953 17.6788 19.4107L9.6414 13.2487L6.71884 11.8362L1.79905 10.1799C1.79905 10.1799 1.04404 9.91209 0.970912 9.32755C0.897787 8.74301 1.82343 8.42644 1.82343 8.42644L21.3807 0.754405C21.3807 0.754405 22.9882 0.0481401 22.9882 1.21723" fill="white"/>
<path d="M9.02371 18.5799C9.02371 18.5799 8.7891 18.558 8.4966 17.6324C8.20456 16.7069 6.71875 11.8358 6.71875 11.8358L18.5312 4.33442C18.5312 4.33442 19.2132 3.92035 19.1888 4.33442C19.1888 4.33442 19.3106 4.40755 18.9451 4.74849C18.5799 5.08959 9.66584 13.1024 9.66584 13.1024" fill="#D2E5F1"/>
<path d="M12.7233 15.6112L9.54433 18.5097C9.54433 18.5097 9.29571 18.6983 9.02393 18.5801L9.63269 13.1963" fill="#B5CFE4"/>
</g>
</g>
<defs>
<filter id="filter0_d_0_1" x="-1263" y="-295" width="2038" height="618" filterUnits="userSpaceOnUse" color-interpolation-filters="sRGB">
<feFlood flood-opacity="0" result="BackgroundImageFix"/>
<feColorMatrix in="SourceAlpha" type="matrix" values="0 0 0 0 0 0 0 0 0 0 0 0 0 0 0 0 0 0 127 0" result="hardAlpha"/>
<feMorphology radius="11" operator="erode" in="SourceAlpha" result="effect1_dropShadow_0_1"/>
<feOffset dy="15"/>
<feGaussianBlur stdDeviation="35"/>
<feComposite in2="hardAlpha" operator="out"/>
<feColorMatrix type="matrix" values="0 0 0 0 0.166667 0 0 0 0 0.111653 0 0 0 0 0.00555556 0 0 0 0.04 0"/>
<feBlend mode="normal" in2="BackgroundImageFix" result="effect1_dropShadow_0_1"/>
<feBlend mode="normal" in="SourceGraphic" in2="effect1_dropShadow_0_1" result="shape"/>
</filter>
<clipPath id="clip0_0_1">
<rect width="1920" height="4954" fill="white" transform="translate(-1204 -4705)"/>
</clipPath>
<clipPath id="clip1_0_1">
<rect width="39" height="39" fill="white" transform="translate(-6 -10)"/>
</clipPath>
</defs>
</svg>
