<svg width="47" height="14" viewBox="0 0 47 14" fill="none" xmlns="http://www.w3.org/2000/svg">
<path d="M20.3813 13.6927H16.6296L18.9762 0.243164H22.7276L20.3813 13.6927Z" fill="white"/>
<path d="M33.9812 0.572599C33.2412 0.300467 32.0675 0 30.6163 0C26.9114 0 24.3025 1.83133 24.2865 4.44957C24.2557 6.38131 26.1544 7.45425 27.5744 8.09835C29.0259 8.75652 29.5193 9.18611 29.5193 9.77279C29.5045 10.6738 28.3464 11.0891 27.2663 11.0891C25.7685 11.0891 24.9659 10.875 23.7463 10.3737L23.2523 10.1588L22.7273 13.178C23.6072 13.5495 25.2283 13.8793 26.9114 13.8937C30.8479 13.8937 33.4106 12.0908 33.441 9.3006C33.456 7.76955 32.4534 6.59639 30.2919 5.63775C28.9797 5.02236 28.1762 4.60742 28.1762 3.97777C28.1916 3.40536 28.8558 2.81907 30.337 2.81907C31.5567 2.79035 32.4528 3.0621 33.1316 3.33404L33.471 3.47686L33.9812 0.572599Z" fill="white"/>
<path d="M38.9675 8.92799C39.2764 8.15534 40.4653 5.16493 40.4653 5.16493C40.4497 5.19364 40.7737 4.37801 40.9589 3.87729L41.2211 5.03618C41.2211 5.03618 41.9315 8.25556 42.0858 8.92799C41.4995 8.92799 39.7085 8.92799 38.9675 8.92799ZM43.5984 0.243164H40.6965C39.8016 0.243164 39.1218 0.4862 38.7357 1.35908L33.1631 13.6925H37.0996C37.0996 13.6925 37.7476 12.0325 37.8869 11.675C38.3188 11.675 42.1482 11.675 42.7037 11.675C42.8114 12.1472 43.1514 13.6925 43.1514 13.6925H46.625L43.5984 0.243164Z" fill="white"/>
<path d="M13.4961 0.243164L9.82202 9.41445L9.42053 7.5544C8.74127 5.40815 6.61096 3.0763 4.23364 1.91684L7.59897 13.6784H11.5662L17.4631 0.243164H13.4961Z" fill="white"/>
<path d="M6.41027 0.243164H0.374251L0.3125 0.514915C5.02097 1.63102 8.1393 4.32134 9.42048 7.55497L8.10832 1.37372C7.89229 0.514725 7.22842 0.271499 6.41027 0.243164Z" fill="#FAA61A"/>
</svg>
